# xmcd CD database file
#
# Track frame offsets:
#	150
#	27261
#	52362
#	72350
#	94736
#	117443
#	138434
#	157714
#	178094
#	200959
#	221518
#	244197
#	265630
#
# Disc length: 3882 seconds
#
# Revision: 9
# Processed by: cddbd v1.5.2PL0 Copyright (c) Steve Scherf et al.
# Submitted via: CDex 1.77
#
DISCID=c30f280d
DTITLE=aiko - ???????
DYEAR=2012
DGENRE=Rock
TTITLE0=Aka
TTITLE1=????
TTITLE2=???
TTITLE3=???
TTITLE4=??????
TTITLE5=????
TTITLE6=??
TTITLE7=?????????
TTITLE8=??????
TTITLE9=????
TTITLE10=???
TTITLE11=???
TTITLE12=???
EXTD=YEAR: 2012
EXTT0=
EXTT1=
EXTT2=
EXTT3=
EXTT4=
EXTT5=
EXTT6=
EXTT7=
EXTT8=
EXTT9=
EXTT10=
EXTT11=
EXTT12=
PLAYORDER=
